STARTFONT 2.1
FONT -lucy-tewifw-medium-r-double wide--11-80-100-100-c-60-ISO10646-1
SIZE 11 100 100
FONTBOUNDINGBOX 12 13 0 -3
STARTPROPERTIES 22
COPYRIGHT "© lucy <ne.tetewi@gmail.com>"
FOUNDRY "lucy"
FAMILY_NAME "tewifw"
WEIGHT_NAME "medium"
SLANT "r"
SETWIDTH_NAME "double wide"
ADD_STYLE_NAME ""
PIXEL_SIZE 11
POINT_SIZE 80
RESOLUTION_X 100
RESOLUTION_Y 100
SPACING "c"
AVERAGE_WIDTH 60
CHARSET_REGISTRY "ISO10646"
CHARSET_ENCODING "1"
FONT_ASCENT 9
FONT_DESCENT 3
UNDERLINE_POSITION -1
UNDERLINE_THICKNESS 1
NORM_SPACE 6
FIGURE_WIDTH 6
_GBDFED_INFO "Edited with gbdfed 1.6."
ENDPROPERTIES
CHARS 43
STARTCHAR <control>
ENCODING 0
SWIDTH 785 0
DWIDTH 12 0
BBX 0 0 0 0
BITMAP
ENDCHAR
STARTCHAR LEFT-POINTING ANGLE BRACKET
ENCODING 9001
SWIDTH 785 0
DWIDTH 12 0
BBX 5 9 0 -1
BITMAP
08
08
10
10
20
10
10
08
08
ENDCHAR
STARTCHAR RIGHT-POINTING ANGLE BRACKET
ENCODING 9002
SWIDTH 785 0
DWIDTH 12 0
BBX 3 9 2 -1
BITMAP
80
80
40
40
20
40
40
80
80
ENDCHAR
STARTCHAR LEFT CORNER BRACKET
ENCODING 12300
SWIDTH 785 0
DWIDTH 12 0
BBX 4 8 7 1
BITMAP
F0
80
80
80
80
80
80
80
ENDCHAR
STARTCHAR RIGHT CORNER BRACKET
ENCODING 12301
SWIDTH 785 0
DWIDTH 12 0
BBX 4 8 0 -3
BITMAP
10
10
10
10
10
10
10
F0
ENDCHAR
STARTCHAR WAVE DASH
ENCODING 12316
SWIDTH 785 0
DWIDTH 12 0
BBX 6 2 2 3
BITMAP
64
98
ENDCHAR
STARTCHAR REVERSED DOUBLE PRIME QUOTATION MARK
ENCODING 12317
SWIDTH 785 0
DWIDTH 12 0
BBX 4 3 3 4
BITMAP
A0
A0
50
ENDCHAR
STARTCHAR DOUBLE PRIME QUOTATION MARK
ENCODING 12318
SWIDTH 785 0
DWIDTH 12 0
BBX 4 3 3 4
BITMAP
50
50
A0
ENDCHAR
STARTCHAR LOW DOUBLE PRIME QUOTATION MARK
ENCODING 12319
SWIDTH 785 0
DWIDTH 12 0
BBX 7 2 0 0
BITMAP
0A
14
ENDCHAR
STARTCHAR WAVY OVERLINE
ENCODING 65099
SWIDTH 785 0
DWIDTH 12 0
BBX 10 2 0 6
BITMAP
9980
6640
ENDCHAR
STARTCHAR WAVY LOW LINE
ENCODING 65103
SWIDTH 785 0
DWIDTH 12 0
BBX 10 2 0 -1
BITMAP
9980
6640
ENDCHAR
STARTCHAR FULLWIDTH EXCLAMATION MARK
ENCODING 65281
SWIDTH 785 0
DWIDTH 12 0
BBX 1 8 5 0
BITMAP
80
80
80
80
80
80
00
80
ENDCHAR
STARTCHAR FULLWIDTH QUOTATION MARK
ENCODING 65282
SWIDTH 785 0
DWIDTH 12 0
BBX 3 3 4 5
BITMAP
A0
A0
A0
ENDCHAR
STARTCHAR FULLWIDTH NUMBER SIGN
ENCODING 65283
SWIDTH 785 0
DWIDTH 12 0
BBX 8 8 2 0
BITMAP
12
12
7F
24
24
FE
48
48
ENDCHAR
STARTCHAR FULLWIDTH DOLLAR SIGN
ENCODING 65284
SWIDTH 785 0
DWIDTH 12 0
BBX 7 9 2 -1
BITMAP
10
7C
92
90
7C
12
92
7C
10
ENDCHAR
STARTCHAR FULLWIDTH PERCENT SIGN
ENCODING 65285
SWIDTH 785 0
DWIDTH 12 0
BBX 8 8 2 0
BITMAP
62
92
94
68
16
29
49
46
ENDCHAR
STARTCHAR FULLWIDTH AMPERSAND
ENCODING 65286
SWIDTH 785 0
DWIDTH 12 0
BBX 8 8 2 0
BITMAP
30
48
50
20
57
8A
8C
73
ENDCHAR
STARTCHAR FULLWIDTH APOSTROPHE
ENCODING 65287
SWIDTH 785 0
DWIDTH 12 0
BBX 2 4 3 4
BITMAP
C0
C0
40
80
ENDCHAR
STARTCHAR FULLWIDTH LEFT PARENTHESIS
ENCODING 65288
SWIDTH 785 0
DWIDTH 12 0
BBX 3 10 4 -2
BITMAP
20
40
40
80
80
80
80
40
40
20
ENDCHAR
STARTCHAR FULLWIDTH RIGHT PARENTHESIS
ENCODING 65289
SWIDTH 785 0
DWIDTH 12 0
BBX 3 10 4 -2
BITMAP
80
40
40
20
20
20
20
40
40
80
ENDCHAR
STARTCHAR FULLWIDTH ASTERISK
ENCODING 65290
SWIDTH 785 0
DWIDTH 12 0
BBX 5 6 3 1
BITMAP
20
A8
70
70
A8
20
ENDCHAR
STARTCHAR FULLWIDTH PLUS SIGN
ENCODING 65291
SWIDTH 785 0
DWIDTH 12 0
BBX 7 7 2 0
BITMAP
10
10
10
FE
10
10
10
ENDCHAR
STARTCHAR FULLWIDTH COMMA
ENCODING 65292
SWIDTH 785 0
DWIDTH 12 0
BBX 2 4 1 -2
BITMAP
C0
C0
40
80
ENDCHAR
STARTCHAR FULLWIDTH HYPHEN-MINUS
ENCODING 65293
SWIDTH 785 0
DWIDTH 12 0
BBX 9 1 1 3
BITMAP
FF80
ENDCHAR
STARTCHAR FULLWIDTH FULL STOP
ENCODING 65294
SWIDTH 785 0
DWIDTH 12 0
BBX 3 2 0 0
BITMAP
60
60
ENDCHAR
STARTCHAR FULLWIDTH SOLIDUS
ENCODING 65295
SWIDTH 785 0
DWIDTH 12 0
BBX 9 9 1 -2
BITMAP
0080
0100
0200
0400
0800
1000
2000
4000
8000
ENDCHAR
STARTCHAR FULLWIDTH DIGIT ZERO
ENCODING 65296
SWIDTH 785 0
DWIDTH 12 0
BBX 6 8 2 0
BITMAP
78
8C
94
94
A4
A4
C4
78
ENDCHAR
STARTCHAR FULLWIDTH DIGIT ONE
ENCODING 65297
SWIDTH 785 0
DWIDTH 12 0
BBX 5 8 3 0
BITMAP
20
60
A0
20
20
20
20
F8
ENDCHAR
STARTCHAR FULLWIDTH DIGIT TWO
ENCODING 65298
SWIDTH 785 0
DWIDTH 12 0
BBX 6 8 2 0
BITMAP
78
84
84
08
10
20
40
FC
ENDCHAR
STARTCHAR FULLWIDTH DIGIT THREE
ENCODING 65299
SWIDTH 785 0
DWIDTH 12 0
BBX 6 8 2 0
BITMAP
78
84
04
38
04
04
84
78
ENDCHAR
STARTCHAR FULLWIDTH DIGIT FOUR
ENCODING 65300
SWIDTH 785 0
DWIDTH 12 0
BBX 6 8 2 0
BITMAP
08
18
28
48
88
FC
08
1C
ENDCHAR
STARTCHAR FULLWIDTH DIGIT FIVE
ENCODING 65301
SWIDTH 785 0
DWIDTH 12 0
BBX 6 8 2 0
BITMAP
FC
80
80
78
04
04
84
78
ENDCHAR
STARTCHAR FULLWIDTH DIGIT SIX
ENCODING 65302
SWIDTH 785 0
DWIDTH 12 0
BBX 6 8 2 0
BITMAP
78
80
80
F8
84
84
84
78
ENDCHAR
STARTCHAR FULLWIDTH DIGIT SEVEN
ENCODING 65303
SWIDTH 785 0
DWIDTH 12 0
BBX 6 8 2 0
BITMAP
FC
04
08
10
10
20
20
20
ENDCHAR
STARTCHAR FULLWIDTH DIGIT EIGHT
ENCODING 65304
SWIDTH 785 0
DWIDTH 12 0
BBX 6 8 2 0
BITMAP
78
84
84
78
84
84
84
78
ENDCHAR
STARTCHAR FULLWIDTH DIGIT NINE
ENCODING 65305
SWIDTH 785 0
DWIDTH 12 0
BBX 6 8 2 0
BITMAP
78
84
84
84
7C
04
04
78
ENDCHAR
STARTCHAR FULLWIDTH COLON
ENCODING 65306
SWIDTH 785 0
DWIDTH 12 0
BBX 2 6 1 0
BITMAP
C0
C0
00
00
C0
C0
ENDCHAR
STARTCHAR FULLWIDTH SEMICOLON
ENCODING 65307
SWIDTH 785 0
DWIDTH 12 0
BBX 2 8 1 -2
BITMAP
C0
C0
00
00
C0
C0
40
80
ENDCHAR
STARTCHAR FULLWIDTH LESS-THAN SIGN
ENCODING 65308
SWIDTH 785 0
DWIDTH 12 0
BBX 7 9 1 -1
BITMAP
02
04
08
10
20
10
08
04
02
ENDCHAR
STARTCHAR FULLWIDTH EQUALS SIGN
ENCODING 65309
SWIDTH 785 0
DWIDTH 12 0
BBX 6 4 2 2
BITMAP
FC
00
00
FC
ENDCHAR
STARTCHAR FULLWIDTH GREATER-THAN SIGN
ENCODING 65310
SWIDTH 785 0
DWIDTH 12 0
BBX 5 9 3 -1
BITMAP
80
40
20
10
08
10
20
40
80
ENDCHAR
STARTCHAR FULLWIDTH QUESTION MARK
ENCODING 65311
SWIDTH 785 0
DWIDTH 12 0
BBX 6 8 2 0
BITMAP
78
84
84
08
10
10
00
10
ENDCHAR
STARTCHAR FULLWIDTH COMMERCIAL AT
ENCODING 65312
SWIDTH 785 0
DWIDTH 12 0
BBX 8 8 2 0
BITMAP
3E
41
9D
A5
A5
9A
40
3E
ENDCHAR
ENDFONT
